<!DOCTYPE svg PUBLIC "-//W3C//DTD SVG 1.1//EN" "http://www.w3.org/Graphics/SVG/1.1/DTD/svg11.dtd">
<!-- Uploaded to: SVG Repo, www.svgrepo.com, Transformed by: SVG Repo Mixer Tools -->
<svg fill="#d10000" version="1.1" id="Capa_1" xmlns="http://www.w3.org/2000/svg" xmlns:xlink="http://www.w3.org/1999/xlink" width="800px" height="800px" viewBox="-4.79 -4.79 57.48 57.48" xml:space="preserve" stroke="#d10000" transform="rotate(0)matrix(-1, 0, 0, 1, 0, 0)">
<g id="SVGRepo_bgCarrier" stroke-width="0" transform="translate(11.97375,11.97375), scale(0.5)">
<path transform="translate(-4.79, -4.79), scale(3.5925)" fill="#ffffff" d="M9.166.33a2.25 2.25 0 00-2.332 0l-5.25 3.182A2.25 2.25 0 00.5 5.436v5.128a2.25 2.25 0 001.084 1.924l5.25 3.182a2.25 2.25 0 002.332 0l5.25-3.182a2.25 2.25 0 001.084-1.924V5.436a2.25 2.25 0 00-1.084-1.924L9.166.33z" strokewidth="0"/>
</g>
<g id="SVGRepo_tracerCarrier" stroke-linecap="round" stroke-linejoin="round" stroke="#CCCCCC" stroke-width="0.09579000000000001"/>
<g id="SVGRepo_iconCarrier"> <g> <path d="M42.879,2.983H5.02C2.248,2.983,0,5.231,0,8.004v24.807c0,2.771,2.248,5.02,5.02,5.02h28.761l5.525,5.592 c0.961,0.974,2.256,1.488,3.57,1.488c0.643,0,1.289-0.123,1.906-0.376c1.883-0.772,3.111-2.606,3.111-4.646V8.004 C47.896,5.231,45.649,2.983,42.879,2.983z M31.53,28.095c0.159,0.931-0.224,1.867-0.983,2.42c-0.432,0.313-0.94,0.475-1.453,0.475 c-0.396,0-0.789-0.094-1.15-0.285l-3.995-2.099l-3.994,2.099c-0.834,0.438-1.843,0.364-2.604-0.188 c-0.761-0.551-1.143-1.489-0.984-2.418l0.052-0.309l0.711-4.138l-3.231-3.15c-0.674-0.657-0.917-1.64-0.626-2.535 c0.291-0.896,1.065-1.548,1.997-1.683l4.464-0.649l1.289-2.611l0.708-1.434c0.417-0.845,1.276-1.379,2.218-1.379 c0.94,0,1.801,0.534,2.218,1.379l0.708,1.434l1.289,2.611l4.466,0.649c0.932,0.135,1.704,0.787,1.995,1.683s0.05,1.878-0.626,2.535 l-3.23,3.15l0.711,4.138L31.53,28.095z"/> </g> </g>
</svg>